<?xml version="1.0" encoding="utf-8"?>
<!-- Generator: Adobe Illustrator 23.0.5, SVG Export Plug-In . SVG Version: 6.00 Build 0)  -->
<svg version="1.1" id="Layer_1" xmlns="http://www.w3.org/2000/svg" xmlns:xlink="http://www.w3.org/1999/xlink" x="0px" y="0px"
	 viewBox="0 0 161 127" style="enable-background:new 0 0 161 127;" xml:space="preserve">
<style type="text/css">
	.st0{fill-rule:evenodd;clip-rule:evenodd;fill:#F9EAEB;}
</style>
<path class="st0" d="M78.4,92.2c14.2-5.1,23.4-15.4,25.5-33.2c0.6-4.8-0.3-1.2-2.9,1.3c-8.6,8.1-25.7,5.6-28.4-12.7
	C67.4,15.4,100.3,9.3,110.2,27c2.3,4.1,3.9,8.9,4.5,14.2c2.7,23.1-6.7,43.9-23.6,53.8c-3.1,1.8-6.4,3.3-10,4.4
	c-1.8,0.5-3.1-0.7-3.7-2.7C77,95,76.8,93.1,78.4,92.2z M31.2,92.9c14.2-5.1,23.4-15.4,25.5-33.2c0.6-4.8-0.3-1.2-2.9,1.3
	c-8.6,8.1-25.7,5.6-28.4-12.7C20.2,16.1,53.1,10,63.1,27.7c2.3,4.1,3.9,8.9,4.5,14.2c2.7,23.1-6.7,43.9-23.6,53.8
	c-3.1,1.8-6.4,3.3-10,4.4c-1.8,0.5-3.1-0.7-3.7-2.7C29.8,95.7,29.6,93.8,31.2,92.9z"/>
</svg>
